<?xml version="1.0" encoding="UTF-8"?>
<svg id="Layer_1" data-name="Layer 1" xmlns="http://www.w3.org/2000/svg" viewBox="0 0 1080 1080">
  <defs>
    <style>
      .cls-1 {
        fill: #c3007a;
      }

      .cls-2 {
        fill: #501688;
      }

      .cls-3 {
        fill: #fff;
      }
    </style>
  </defs>
  <rect class="cls-2" x="-232.11" y="154.04" width="1607.71" height="1212.16" transform="translate(-188.3645 1331.8675) rotate(-90)"/>
  <g>
    <g>
      <path class="cls-3" d="M135.37,446.39c0-19.27,15.6-34.86,34.86-34.86s34.86,15.6,34.86,34.86v2.75c16.05-20.64,36.7-39.45,72.02-39.45,52.75,0,83.49,34.86,83.49,91.29v127.07c0,19.27-15.6,34.86-34.86,34.86s-34.86-15.6-34.86-34.86v-105.05c0-33.03-15.59-50-42.2-50s-43.58,16.97-43.58,50v105.05c0,19.27-15.6,34.86-34.86,34.86s-34.86-15.6-34.86-34.86v-181.66Z"/>
      <path class="cls-3" d="M600.53,633.61c0,19.27-15.6,34.86-34.86,34.86s-34.86-15.6-34.86-34.86v-2.75c-16.05,20.64-36.7,39.45-72.02,39.45-52.75,0-83.49-34.86-83.49-91.29v-127.07c0-19.27,15.6-34.86,34.86-34.86s34.86,15.6,34.86,34.86v105.05c0,33.03,15.59,50,42.2,50s43.58-16.97,43.58-50v-105.05c0-19.27,15.6-34.86,34.86-34.86s34.86,15.6,34.86,34.86v181.66Z"/>
      <path class="cls-3" d="M737.24,665.2h-3.67c-18.81,0-31.65-11.93-39.45-30.27l-75.23-173.86c-1.84-4.59-3.67-10.55-3.67-16.97,0-16.52,15.14-32.57,33.94-32.57s28.9,10.55,33.95,24.77l52.75,142.66,53.67-143.58c4.59-11.93,14.22-23.85,32.57-23.85s33.48,14.22,33.48,33.03c0,5.96-2.29,13.3-3.67,16.51l-75.23,173.86c-7.8,17.89-20.64,30.27-39.45,30.27Z"/>
      <path class="cls-3" d="M874.41,446.39c0-19.27,15.6-34.86,34.86-34.86s34.86,15.6,34.86,34.86v181.66c0,19.27-15.6,34.86-34.86,34.86s-34.86-15.6-34.86-34.86v-181.66Z"/>
    </g>
    <g>
      <circle class="cls-1" cx="170.48" cy="445.6" r="35.11"/>
      <circle class="cls-1" cx="410.41" cy="445.6" r="35.11"/>
      <circle class="cls-1" cx="565.42" cy="445.6" r="35.11"/>
      <circle class="cls-1" cx="909.52" cy="445.6" r="35.11"/>
      <circle class="cls-1" cx="821.52" cy="444.55" r="34.07"/>
      <circle class="cls-1" cx="649.29" cy="444.55" r="34.07"/>
    </g>
  </g>
</svg>